<svg viewBox="-48 0 440 440" xmlns="http://www.w3.org/2000/svg"><path d="M130.383 151.8c17.57 0 31.812-14.241 31.812-31.812.004-17.57-14.238-31.812-31.808-31.812s-31.813 14.242-31.813 31.812c.016 17.559 14.25 31.793 31.809 31.813zM264.98 94h67.875L253 11.848v70.285c.008 6.562 5.336 11.875 11.898 11.867zM192 243.184c0-28.22-23.441-51.184-51.664-51.184H120.16c-28.25.035-51.137 22.934-51.16 51.184V248h123zm0 0"/><path d="M237 82.133V0H32.23C14.496.059.117 14.387 0 32.117v375.766C.117 425.613 14.496 439.94 32.23 440h279.54c17.734-.059 32.113-14.387 32.23-32.117V110h-79.02c-15.41.043-27.937-12.41-27.98-27.82zm-106.617-9.961c26.406 0 47.812 21.406 47.812 47.812.004 26.407-21.402 47.813-47.808 47.813s-47.813-21.406-47.813-47.813c.028-26.39 21.418-47.78 47.809-47.812zM53 243.184c-.102-37 29.813-67.082 66.816-67.184h20.52c37.238-.133 67.531 29.95 67.664 67.184v12.644c0 4.418-4.066 8.172-8.484 8.172H60.984A8.132 8.132 0 0153 255.828zM53.82 312h137.817a8 8 0 010 16H53.82a8 8 0 010-16zm238.2 62a8 8 0 01-8 8H53.82a8 8 0 010-16h230.2a8 8 0 018 8zm0 0"/></svg>